<?xml version="1.0" encoding="UTF-8" standalone="no"?>
<!DOCTYPE svg PUBLIC "-//W3C//DTD SVG 1.1//EN"
 "http://www.w3.org/Graphics/SVG/1.1/DTD/svg11.dtd">
<!-- Generated by graphviz version 8.1.0 (20230707.0739)
 -->
<!-- Title: dependency&#45;cruiser output Pages: 1 -->
<svg width="467pt" height="850pt"
 viewBox="0.00 0.00 466.50 850.00" xmlns="http://www.w3.org/2000/svg" xmlns:xlink="http://www.w3.org/1999/xlink">
<g id="graph0" class="graph" transform="scale(1 1) rotate(0) translate(4 846)">
<title>dependency&#45;cruiser output</title>
<polygon fill="white" stroke="none" points="-4,4 -4,-846 462.5,-846 462.5,4 -4,4"/>
<g id="clust1" class="cluster">
<title>cluster_src</title>
<path fill="#ffffff" stroke="black" stroke-width="2" d="M20,-8C20,-8 438.5,-8 438.5,-8 444.5,-8 450.5,-14 450.5,-20 450.5,-20 450.5,-822 450.5,-822 450.5,-828 444.5,-834 438.5,-834 438.5,-834 20,-834 20,-834 14,-834 8,-828 8,-822 8,-822 8,-20 8,-20 8,-14 14,-8 20,-8"/>
<text text-anchor="middle" x="229.25" y="-821.45" font-family="Helvetica,sans-Serif" font-weight="bold" font-size="9.00">src</text>
</g>
<g id="clust2" class="cluster">
<title>cluster_src/libs</title>
<path fill="#ffffff" stroke="black" stroke-width="2" d="M28,-16C28,-16 430.5,-16 430.5,-16 436.5,-16 442.5,-22 442.5,-28 442.5,-28 442.5,-795 442.5,-795 442.5,-801 436.5,-807 430.5,-807 430.5,-807 28,-807 28,-807 22,-807 16,-801 16,-795 16,-795 16,-28 16,-28 16,-22 22,-16 28,-16"/>
<text text-anchor="middle" x="229.25" y="-794.45" font-family="Helvetica,sans-Serif" font-weight="bold" font-size="9.00">libs</text>
</g>
<g id="clust3" class="cluster">
<title>cluster_src/libs/reuse</title>
<path fill="#ffffff" stroke="black" stroke-width="2" d="M36,-87C36,-87 422.5,-87 422.5,-87 428.5,-87 434.5,-93 434.5,-99 434.5,-99 434.5,-768 434.5,-768 434.5,-774 428.5,-780 422.5,-780 422.5,-780 36,-780 36,-780 30,-780 24,-774 24,-768 24,-768 24,-99 24,-99 24,-93 30,-87 36,-87"/>
<text text-anchor="middle" x="229.25" y="-767.45" font-family="Helvetica,sans-Serif" font-weight="bold" font-size="9.00">reuse</text>
</g>
<g id="clust8" class="cluster">
<title>cluster_src/libs/reuse/containers</title>
<path fill="#ffffff" stroke="black" stroke-width="2" d="M300,-605C300,-605 414.5,-605 414.5,-605 420.5,-605 426.5,-611 426.5,-617 426.5,-617 426.5,-741 426.5,-741 426.5,-747 420.5,-753 414.5,-753 414.5,-753 300,-753 300,-753 294,-753 288,-747 288,-741 288,-741 288,-617 288,-617 288,-611 294,-605 300,-605"/>
<text text-anchor="middle" x="357.25" y="-740.45" font-family="Helvetica,sans-Serif" font-weight="bold" font-size="9.00">containers</text>
</g>
<g id="clust4" class="cluster">
<title>cluster_src/libs/reuse/components</title>
<path fill="#ffffff" stroke="black" stroke-width="2" d="M44,-95C44,-95 255.62,-95 255.62,-95 261.62,-95 267.62,-101 267.62,-107 267.62,-107 267.62,-236 267.62,-236 267.62,-242 261.62,-248 255.62,-248 255.62,-248 44,-248 44,-248 38,-248 32,-242 32,-236 32,-236 32,-107 32,-107 32,-101 38,-95 44,-95"/>
<text text-anchor="middle" x="149.81" y="-235.45" font-family="Helvetica,sans-Serif" font-weight="bold" font-size="9.00">components</text>
</g>
<g id="clust6" class="cluster">
<title>cluster_src/libs/reuse/components/interfaces</title>
<path fill="#ffffff" stroke="black" stroke-width="2" d="M63.5,-166C63.5,-166 121.75,-166 121.75,-166 127.75,-166 133.75,-172 133.75,-178 133.75,-178 133.75,-209 133.75,-209 133.75,-215 127.75,-221 121.75,-221 121.75,-221 63.5,-221 63.5,-221 57.5,-221 51.5,-215 51.5,-209 51.5,-209 51.5,-178 51.5,-178 51.5,-172 57.5,-166 63.5,-166"/>
<text text-anchor="middle" x="92.62" y="-208.45" font-family="Helvetica,sans-Serif" font-weight="bold" font-size="9.00">interfaces</text>
</g>
<g id="clust5" class="cluster">
<title>cluster_src/libs/reuse/components/consts</title>
<path fill="#ffffff" stroke="black" stroke-width="2" d="M201.62,-166C201.62,-166 247.62,-166 247.62,-166 253.62,-166 259.62,-172 259.62,-178 259.62,-178 259.62,-209 259.62,-209 259.62,-215 253.62,-221 247.62,-221 247.62,-221 201.62,-221 201.62,-221 195.62,-221 189.62,-215 189.62,-209 189.62,-209 189.62,-178 189.62,-178 189.62,-172 195.62,-166 201.62,-166"/>
<text text-anchor="middle" x="224.62" y="-208.45" font-family="Helvetica,sans-Serif" font-weight="bold" font-size="9.00">consts</text>
</g>
<g id="clust7" class="cluster">
<title>cluster_src/libs/reuse/components/styles</title>
<path fill="#ffffff" stroke="black" stroke-width="2" d="M201.62,-103C201.62,-103 247.62,-103 247.62,-103 253.62,-103 259.62,-109 259.62,-115 259.62,-115 259.62,-146 259.62,-146 259.62,-152 253.62,-158 247.62,-158 247.62,-158 201.62,-158 201.62,-158 195.62,-158 189.62,-152 189.62,-146 189.62,-146 189.62,-115 189.62,-115 189.62,-109 195.62,-103 201.62,-103"/>
<text text-anchor="middle" x="224.62" y="-145.45" font-family="Helvetica,sans-Serif" font-weight="bold" font-size="9.00">styles</text>
</g>
<g id="clust9" class="cluster">
<title>cluster_src/libs/reuse/elements</title>
<path fill="#ffffff" stroke="black" stroke-width="2" d="M165.25,-256C165.25,-256 411.38,-256 411.38,-256 417.38,-256 423.38,-262 423.38,-268 423.38,-268 423.38,-585 423.38,-585 423.38,-591 417.38,-597 411.38,-597 411.38,-597 165.25,-597 165.25,-597 159.25,-597 153.25,-591 153.25,-585 153.25,-585 153.25,-268 153.25,-268 153.25,-262 159.25,-256 165.25,-256"/>
<text text-anchor="middle" x="288.31" y="-584.45" font-family="Helvetica,sans-Serif" font-weight="bold" font-size="9.00">elements</text>
</g>
<g id="clust10" class="cluster">
<title>cluster_src/libs/reuse/elements/form&#45;controls</title>
<path fill="#ffffff" stroke="black" stroke-width="2" d="M173.25,-354C173.25,-354 403.38,-354 403.38,-354 409.38,-354 415.38,-360 415.38,-366 415.38,-366 415.38,-558 415.38,-558 415.38,-564 409.38,-570 403.38,-570 403.38,-570 173.25,-570 173.25,-570 167.25,-570 161.25,-564 161.25,-558 161.25,-558 161.25,-366 161.25,-366 161.25,-360 167.25,-354 173.25,-354"/>
<text text-anchor="middle" x="288.31" y="-557.45" font-family="Helvetica,sans-Serif" font-weight="bold" font-size="9.00">form&#45;controls</text>
</g>
<g id="clust12" class="cluster">
<title>cluster_src/libs/reuse/elements/form&#45;controls/consts</title>
<path fill="#ffffff" stroke="black" stroke-width="2" d="M334.25,-488C334.25,-488 380.25,-488 380.25,-488 386.25,-488 392.25,-494 392.25,-500 392.25,-500 392.25,-531 392.25,-531 392.25,-537 386.25,-543 380.25,-543 380.25,-543 334.25,-543 334.25,-543 328.25,-543 322.25,-537 322.25,-531 322.25,-531 322.25,-500 322.25,-500 322.25,-494 328.25,-488 334.25,-488"/>
<text text-anchor="middle" x="357.25" y="-530.45" font-family="Helvetica,sans-Serif" font-weight="bold" font-size="9.00">consts</text>
</g>
<g id="clust11" class="cluster">
<title>cluster_src/libs/reuse/elements/form&#45;controls/components</title>
<path fill="#ffffff" stroke="black" stroke-width="2" d="M181.25,-425C181.25,-425 268,-425 268,-425 274,-425 280,-431 280,-437 280,-437 280,-530 280,-530 280,-536 274,-542 268,-542 268,-542 181.25,-542 181.25,-542 175.25,-542 169.25,-536 169.25,-530 169.25,-530 169.25,-437 169.25,-437 169.25,-431 175.25,-425 181.25,-425"/>
<text text-anchor="middle" x="224.62" y="-529.45" font-family="Helvetica,sans-Serif" font-weight="bold" font-size="9.00">components</text>
</g>
<g id="clust14" class="cluster">
<title>cluster_src/libs/reuse/elements/form&#45;controls/styles</title>
<path fill="#ffffff" stroke="black" stroke-width="2" d="M319.12,-425C319.12,-425 395.38,-425 395.38,-425 401.38,-425 407.38,-431 407.38,-437 407.38,-437 407.38,-468 407.38,-468 407.38,-474 401.38,-480 395.38,-480 395.38,-480 319.12,-480 319.12,-480 313.12,-480 307.12,-474 307.12,-468 307.12,-468 307.12,-437 307.12,-437 307.12,-431 313.12,-425 319.12,-425"/>
<text text-anchor="middle" x="357.25" y="-467.45" font-family="Helvetica,sans-Serif" font-weight="bold" font-size="9.00">styles</text>
</g>
<g id="clust13" class="cluster">
<title>cluster_src/libs/reuse/elements/form&#45;controls/interfaces</title>
<path fill="#ffffff" stroke="black" stroke-width="2" d="M328.12,-362C328.12,-362 386.38,-362 386.38,-362 392.38,-362 398.38,-368 398.38,-374 398.38,-374 398.38,-405 398.38,-405 398.38,-411 392.38,-417 386.38,-417 386.38,-417 328.12,-417 328.12,-417 322.12,-417 316.12,-411 316.12,-405 316.12,-405 316.12,-374 316.12,-374 316.12,-368 322.12,-362 328.12,-362"/>
<text text-anchor="middle" x="357.25" y="-404.45" font-family="Helvetica,sans-Serif" font-weight="bold" font-size="9.00">interfaces</text>
</g>
<g id="clust15" class="cluster">
<title>cluster_src/libs/utils</title>
<path fill="#ffffff" stroke="black" stroke-width="2" d="M201.62,-24C201.62,-24 247.62,-24 247.62,-24 253.62,-24 259.62,-30 259.62,-36 259.62,-36 259.62,-67 259.62,-67 259.62,-73 253.62,-79 247.62,-79 247.62,-79 201.62,-79 201.62,-79 195.62,-79 189.62,-73 189.62,-67 189.62,-67 189.62,-36 189.62,-36 189.62,-30 195.62,-24 201.62,-24"/>
<text text-anchor="middle" x="224.62" y="-66.45" font-family="Helvetica,sans-Serif" font-weight="bold" font-size="9.00">utils</text>
</g>
<!-- src/libs/reuse/components/ButtonBar.tsx -->
<g id="node1" class="node">
<title>src/libs/reuse/components/ButtonBar.tsx</title>
<g id="a_node1"><a xlink:href="src/libs/reuse/components/ButtonBar.tsx" xlink:title="ButtonBar.tsx">
<path fill="#bbfeff" stroke="black" d="M121.21,-157.62C121.21,-157.62 64.04,-157.62 64.04,-157.62 60.83,-157.62 57.62,-154.42 57.62,-151.21 57.62,-151.21 57.62,-144.79 57.62,-144.79 57.62,-141.58 60.83,-138.38 64.04,-138.38 64.04,-138.38 121.21,-138.38 121.21,-138.38 124.42,-138.38 127.62,-141.58 127.62,-144.79 127.62,-144.79 127.62,-151.21 127.62,-151.21 127.62,-154.42 124.42,-157.62 121.21,-157.62"/>
<text text-anchor="start" x="65.62" y="-145.07" font-family="Helvetica,sans-Serif" font-size="9.00">ButtonBar.tsx</text>
</a>
</g>
</g>
<!-- src/libs/reuse/containers/FlexContainer.ts -->
<g id="node2" class="node">
<title>src/libs/reuse/containers/FlexContainer.ts</title>
<g id="a_node2"><a xlink:href="src/libs/reuse/containers/FlexContainer.ts" xlink:title="FlexContainer.ts">
<path fill="#ddfeff" stroke="black" d="M392.21,-725.62C392.21,-725.62 322.29,-725.62 322.29,-725.62 319.08,-725.62 315.88,-722.42 315.88,-719.21 315.88,-719.21 315.88,-712.79 315.88,-712.79 315.88,-709.58 319.08,-706.38 322.29,-706.38 322.29,-706.38 392.21,-706.38 392.21,-706.38 395.42,-706.38 398.62,-709.58 398.62,-712.79 398.62,-712.79 398.62,-719.21 398.62,-719.21 398.62,-722.42 395.42,-725.62 392.21,-725.62"/>
<text text-anchor="start" x="323.88" y="-713.08" font-family="Helvetica,sans-Serif" font-size="9.00">FlexContainer.ts</text>
</a>
</g>
</g>
<!-- src/libs/reuse/components/ButtonBar.tsx&#45;&gt;src/libs/reuse/containers/FlexContainer.ts -->
<g id="edge1" class="edge">
<title>src/libs/reuse/components/ButtonBar.tsx&#45;&gt;src/libs/reuse/containers/FlexContainer.ts</title>
<path fill="none" stroke="#000000" stroke-width="2" stroke-opacity="0.200000" d="M127.9,-151.47C134.63,-153.76 140.93,-157.37 145.25,-163 158.17,-179.84 145.64,-525.18 153.25,-545 186.1,-630.53 209.29,-654.1 288,-701 293.86,-704.49 300.44,-707.18 307.14,-709.23"/>
<polygon fill="#000000" fill-opacity="0.200000" stroke="#000000" stroke-width="2" stroke-opacity="0.200000" points="307.31,-711.99 313.65,-711.52 308.4,-707.94 307.31,-711.99"/>
</g>
<!-- src/libs/reuse/elements/form&#45;controls/components/StyledButton.ts -->
<g id="node3" class="node">
<title>src/libs/reuse/elements/form&#45;controls/components/StyledButton.ts</title>
<g id="a_node3"><a xlink:href="src/libs/reuse/elements/form-controls/components/StyledButton.ts" xlink:title="StyledButton.ts">
<path fill="#ddfeff" stroke="black" d="M256.58,-514.62C256.58,-514.62 192.67,-514.62 192.67,-514.62 189.46,-514.62 186.25,-511.42 186.25,-508.21 186.25,-508.21 186.25,-501.79 186.25,-501.79 186.25,-498.58 189.46,-495.38 192.67,-495.38 192.67,-495.38 256.58,-495.38 256.58,-495.38 259.79,-495.38 263,-498.58 263,-501.79 263,-501.79 263,-508.21 263,-508.21 263,-511.42 259.79,-514.62 256.58,-514.62"/>
<text text-anchor="start" x="194.25" y="-502.07" font-family="Helvetica,sans-Serif" font-size="9.00">StyledButton.ts</text>
</a>
</g>
</g>
<!-- src/libs/reuse/components/ButtonBar.tsx&#45;&gt;src/libs/reuse/elements/form&#45;controls/components/StyledButton.ts -->
<g id="edge2" class="edge">
<title>src/libs/reuse/components/ButtonBar.tsx&#45;&gt;src/libs/reuse/elements/form&#45;controls/components/StyledButton.ts</title>
<path fill="none" stroke="#000000" stroke-width="2" stroke-opacity="0.200000" d="M127.88,-151.48C134.61,-153.77 140.92,-157.38 145.25,-163 167.43,-191.8 130.04,-462.03 153.25,-490 159.36,-497.36 168.11,-501.66 177.37,-504.07"/>
<polygon fill="#000000" fill-opacity="0.200000" stroke="#000000" stroke-width="2" stroke-opacity="0.200000" points="177.67,-506.67 183.96,-505.79 178.49,-502.55 177.67,-506.67"/>
</g>
<!-- src/libs/reuse/components/consts/consts.ts -->
<g id="node4" class="node">
<title>src/libs/reuse/components/consts/consts.ts</title>
<g id="a_node4"><a xlink:href="src/libs/reuse/components/consts/consts.ts" xlink:title="consts.ts">
<path fill="#ddfeff" stroke="black" d="M245.21,-193.62C245.21,-193.62 204.04,-193.62 204.04,-193.62 200.83,-193.62 197.62,-190.42 197.62,-187.21 197.62,-187.21 197.62,-180.79 197.62,-180.79 197.62,-177.58 200.83,-174.38 204.04,-174.38 204.04,-174.38 245.21,-174.38 245.21,-174.38 248.42,-174.38 251.62,-177.58 251.62,-180.79 251.62,-180.79 251.62,-187.21 251.62,-187.21 251.62,-190.42 248.42,-193.62 245.21,-193.62"/>
<text text-anchor="start" x="205.88" y="-181.07" font-family="Helvetica,sans-Serif" font-size="9.00">consts.ts</text>
</a>
</g>
</g>
<!-- src/libs/reuse/components/ButtonBar.tsx&#45;&gt;src/libs/reuse/components/consts/consts.ts -->
<g id="edge3" class="edge">
<title>src/libs/reuse/components/ButtonBar.tsx&#45;&gt;src/libs/reuse/components/consts/consts.ts</title>
<path fill="none" stroke="#000000" stroke-width="2" stroke-opacity="0.200000" d="M128.12,-157.55C146.82,-162.73 169.88,-169.12 188.66,-174.32"/>
<polygon fill="#000000" fill-opacity="0.200000" stroke="#000000" stroke-width="2" stroke-opacity="0.200000" points="188.88,-177.11 195.22,-176.69 190,-173.06 188.88,-177.11"/>
</g>
<!-- src/libs/reuse/components/CustomDropdown.tsx -->
<g id="node5" class="node">
<title>src/libs/reuse/components/CustomDropdown.tsx</title>
<g id="a_node5"><a xlink:href="src/libs/reuse/components/CustomDropdown.tsx" xlink:title="CustomDropdown.tsx">
<path fill="#bbfeff" stroke="black" d="M138.83,-126.62C138.83,-126.62 46.42,-126.62 46.42,-126.62 43.21,-126.62 40,-123.42 40,-120.21 40,-120.21 40,-113.79 40,-113.79 40,-110.58 43.21,-107.38 46.42,-107.38 46.42,-107.38 138.83,-107.38 138.83,-107.38 142.04,-107.38 145.25,-110.58 145.25,-113.79 145.25,-113.79 145.25,-120.21 145.25,-120.21 145.25,-123.42 142.04,-126.62 138.83,-126.62"/>
<text text-anchor="start" x="48" y="-114.08" font-family="Helvetica,sans-Serif" font-size="9.00">CustomDropdown.tsx</text>
</a>
</g>
</g>
<!-- src/libs/reuse/components/styles/styles.ts -->
<g id="node6" class="node">
<title>src/libs/reuse/components/styles/styles.ts</title>
<g id="a_node6"><a xlink:href="src/libs/reuse/components/styles/styles.ts" xlink:title="styles.ts">
<path fill="#ddfeff" stroke="black" d="M245.21,-130.62C245.21,-130.62 204.04,-130.62 204.04,-130.62 200.83,-130.62 197.62,-127.42 197.62,-124.21 197.62,-124.21 197.62,-117.79 197.62,-117.79 197.62,-114.58 200.83,-111.38 204.04,-111.38 204.04,-111.38 245.21,-111.38 245.21,-111.38 248.42,-111.38 251.62,-114.58 251.62,-117.79 251.62,-117.79 251.62,-124.21 251.62,-124.21 251.62,-127.42 248.42,-130.62 245.21,-130.62"/>
<text text-anchor="start" x="207.75" y="-118.08" font-family="Helvetica,sans-Serif" font-size="9.00">styles.ts</text>
</a>
</g>
</g>
<!-- src/libs/reuse/components/CustomDropdown.tsx&#45;&gt;src/libs/reuse/components/styles/styles.ts -->
<g id="edge4" class="edge">
<title>src/libs/reuse/components/CustomDropdown.tsx&#45;&gt;src/libs/reuse/components/styles/styles.ts</title>
<path fill="none" stroke="#000000" stroke-width="2" stroke-opacity="0.200000" d="M145.38,-118.59C159.88,-119.04 175.29,-119.51 188.57,-119.92"/>
<polygon fill="#000000" fill-opacity="0.200000" stroke="#000000" stroke-width="2" stroke-opacity="0.200000" points="188.33,-122.11 194.39,-120.19 188.46,-117.91 188.33,-122.11"/>
</g>
<!-- src/libs/reuse/components/interfaces/interfaces.ts -->
<g id="node7" class="node">
<title>src/libs/reuse/components/interfaces/interfaces.ts</title>
<g id="a_node7"><a xlink:href="src/libs/reuse/components/interfaces/interfaces.ts" xlink:title="no&#45;orphans">
<path fill="#ccffcc" stroke="orange" d="M119.33,-193.62C119.33,-193.62 65.92,-193.62 65.92,-193.62 62.71,-193.62 59.5,-190.42 59.5,-187.21 59.5,-187.21 59.5,-180.79 59.5,-180.79 59.5,-177.58 62.71,-174.38 65.92,-174.38 65.92,-174.38 119.33,-174.38 119.33,-174.38 122.54,-174.38 125.75,-177.58 125.75,-180.79 125.75,-180.79 125.75,-187.21 125.75,-187.21 125.75,-190.42 122.54,-193.62 119.33,-193.62"/>
<text text-anchor="start" x="67.5" y="-181.07" font-family="Helvetica,sans-Serif" font-size="9.00" fill="orange">interfaces.ts</text>
</a>
</g>
</g>
<!-- src/libs/reuse/containers/AppContainer.ts -->
<g id="node8" class="node">
<title>src/libs/reuse/containers/AppContainer.ts</title>
<g id="a_node8"><a xlink:href="src/libs/reuse/containers/AppContainer.ts" xlink:title="no&#45;orphans">
<path fill="#ccffcc" stroke="orange" d="M391.83,-694.62C391.83,-694.62 322.67,-694.62 322.67,-694.62 319.46,-694.62 316.25,-691.42 316.25,-688.21 316.25,-688.21 316.25,-681.79 316.25,-681.79 316.25,-678.58 319.46,-675.38 322.67,-675.38 322.67,-675.38 391.83,-675.38 391.83,-675.38 395.04,-675.38 398.25,-678.58 398.25,-681.79 398.25,-681.79 398.25,-688.21 398.25,-688.21 398.25,-691.42 395.04,-694.62 391.83,-694.62"/>
<text text-anchor="start" x="324.25" y="-682.08" font-family="Helvetica,sans-Serif" font-size="9.00" fill="orange">AppContainer.ts</text>
</a>
</g>
</g>
<!-- src/libs/reuse/containers/PageContainer.ts -->
<g id="node9" class="node">
<title>src/libs/reuse/containers/PageContainer.ts</title>
<g id="a_node9"><a xlink:href="src/libs/reuse/containers/PageContainer.ts" xlink:title="no&#45;orphans">
<path fill="#ccffcc" stroke="orange" d="M394.83,-663.62C394.83,-663.62 319.67,-663.62 319.67,-663.62 316.46,-663.62 313.25,-660.42 313.25,-657.21 313.25,-657.21 313.25,-650.79 313.25,-650.79 313.25,-647.58 316.46,-644.38 319.67,-644.38 319.67,-644.38 394.83,-644.38 394.83,-644.38 398.04,-644.38 401.25,-647.58 401.25,-650.79 401.25,-650.79 401.25,-657.21 401.25,-657.21 401.25,-660.42 398.04,-663.62 394.83,-663.62"/>
<text text-anchor="start" x="321.25" y="-651.08" font-family="Helvetica,sans-Serif" font-size="9.00" fill="orange">PageContainer.ts</text>
</a>
</g>
</g>
<!-- src/libs/reuse/containers/ScrollableListContainer.ts -->
<g id="node10" class="node">
<title>src/libs/reuse/containers/ScrollableListContainer.ts</title>
<g id="a_node10"><a xlink:href="src/libs/reuse/containers/ScrollableListContainer.ts" xlink:title="no&#45;orphans">
<path fill="#ccffcc" stroke="orange" d="M412.08,-632.62C412.08,-632.62 302.42,-632.62 302.42,-632.62 299.21,-632.62 296,-629.42 296,-626.21 296,-626.21 296,-619.79 296,-619.79 296,-616.58 299.21,-613.38 302.42,-613.38 302.42,-613.38 412.08,-613.38 412.08,-613.38 415.29,-613.38 418.5,-616.58 418.5,-619.79 418.5,-619.79 418.5,-626.21 418.5,-626.21 418.5,-629.42 415.29,-632.62 412.08,-632.62"/>
<text text-anchor="start" x="304" y="-620.08" font-family="Helvetica,sans-Serif" font-size="9.00" fill="orange">ScrollableListContainer.ts</text>
</a>
</g>
</g>
<!-- src/libs/reuse/elements/StyledHeader4.ts -->
<g id="node11" class="node">
<title>src/libs/reuse/elements/StyledHeader4.ts</title>
<g id="a_node11"><a xlink:href="src/libs/reuse/elements/StyledHeader4.ts" xlink:title="no&#45;orphans">
<path fill="#ccffcc" stroke="orange" d="M261.46,-345.62C261.46,-345.62 187.79,-345.62 187.79,-345.62 184.58,-345.62 181.38,-342.42 181.38,-339.21 181.38,-339.21 181.38,-332.79 181.38,-332.79 181.38,-329.58 184.58,-326.38 187.79,-326.38 187.79,-326.38 261.46,-326.38 261.46,-326.38 264.67,-326.38 267.88,-329.58 267.88,-332.79 267.88,-332.79 267.88,-339.21 267.88,-339.21 267.88,-342.42 264.67,-345.62 261.46,-345.62"/>
<text text-anchor="start" x="189.38" y="-333.07" font-family="Helvetica,sans-Serif" font-size="9.00" fill="orange">StyledHeader4.ts</text>
</a>
</g>
</g>
<!-- src/libs/reuse/elements/StyledHeader6.ts -->
<g id="node12" class="node">
<title>src/libs/reuse/elements/StyledHeader6.ts</title>
<g id="a_node12"><a xlink:href="src/libs/reuse/elements/StyledHeader6.ts" xlink:title="no&#45;orphans">
<path fill="#ccffcc" stroke="orange" d="M261.46,-314.62C261.46,-314.62 187.79,-314.62 187.79,-314.62 184.58,-314.62 181.38,-311.42 181.38,-308.21 181.38,-308.21 181.38,-301.79 181.38,-301.79 181.38,-298.58 184.58,-295.38 187.79,-295.38 187.79,-295.38 261.46,-295.38 261.46,-295.38 264.67,-295.38 267.88,-298.58 267.88,-301.79 267.88,-301.79 267.88,-308.21 267.88,-308.21 267.88,-311.42 264.67,-314.62 261.46,-314.62"/>
<text text-anchor="start" x="189.38" y="-302.07" font-family="Helvetica,sans-Serif" font-size="9.00" fill="orange">StyledHeader6.ts</text>
</a>
</g>
</g>
<!-- src/libs/reuse/elements/StyledHr.ts -->
<g id="node13" class="node">
<title>src/libs/reuse/elements/StyledHr.ts</title>
<g id="a_node13"><a xlink:href="src/libs/reuse/elements/StyledHr.ts" xlink:title="no&#45;orphans">
<path fill="#ccffcc" stroke="orange" d="M248.33,-283.62C248.33,-283.62 200.92,-283.62 200.92,-283.62 197.71,-283.62 194.5,-280.42 194.5,-277.21 194.5,-277.21 194.5,-270.79 194.5,-270.79 194.5,-267.58 197.71,-264.38 200.92,-264.38 200.92,-264.38 248.33,-264.38 248.33,-264.38 251.54,-264.38 254.75,-267.58 254.75,-270.79 254.75,-270.79 254.75,-277.21 254.75,-277.21 254.75,-280.42 251.54,-283.62 248.33,-283.62"/>
<text text-anchor="start" x="202.5" y="-271.07" font-family="Helvetica,sans-Serif" font-size="9.00" fill="orange">StyledHr.ts</text>
</a>
</g>
</g>
<!-- src/libs/reuse/elements/form&#45;controls/components/Select.tsx -->
<g id="node14" class="node">
<title>src/libs/reuse/elements/form&#45;controls/components/Select.tsx</title>
<g id="a_node14"><a xlink:href="src/libs/reuse/elements/form-controls/components/Select.tsx" xlink:title="Select.tsx">
<path fill="#bbfeff" stroke="black" d="M245.71,-483.62C245.71,-483.62 203.54,-483.62 203.54,-483.62 200.33,-483.62 197.12,-480.42 197.12,-477.21 197.12,-477.21 197.12,-470.79 197.12,-470.79 197.12,-467.58 200.33,-464.38 203.54,-464.38 203.54,-464.38 245.71,-464.38 245.71,-464.38 248.92,-464.38 252.12,-467.58 252.12,-470.79 252.12,-470.79 252.12,-477.21 252.12,-477.21 252.12,-480.42 248.92,-483.62 245.71,-483.62"/>
<text text-anchor="start" x="205.12" y="-471.07" font-family="Helvetica,sans-Serif" font-size="9.00">Select.tsx</text>
</a>
</g>
</g>
<!-- src/libs/reuse/elements/form&#45;controls/components/Select.tsx&#45;&gt;src/libs/reuse/containers/FlexContainer.ts -->
<g id="edge8" class="edge">
<title>src/libs/reuse/elements/form&#45;controls/components/Select.tsx&#45;&gt;src/libs/reuse/containers/FlexContainer.ts</title>
<path fill="none" stroke="#000000" stroke-width="2" stroke-opacity="0.200000" d="M252.55,-474.93C262.73,-476.74 273.44,-480.71 280,-489 294.63,-507.48 272.88,-682.91 288,-701 293.03,-707.02 299.87,-710.95 307.28,-713.47"/>
<polygon fill="#000000" fill-opacity="0.200000" stroke="#000000" stroke-width="2" stroke-opacity="0.200000" points="307.15,-716.15 313.49,-715.68 308.25,-712.1 307.15,-716.15"/>
</g>
<!-- src/libs/reuse/elements/form&#45;controls/consts/consts.ts -->
<g id="node15" class="node">
<title>src/libs/reuse/elements/form&#45;controls/consts/consts.ts</title>
<g id="a_node15"><a xlink:href="src/libs/reuse/elements/form-controls/consts/consts.ts" xlink:title="consts.ts">
<path fill="#ddfeff" stroke="black" d="M377.83,-515.62C377.83,-515.62 336.67,-515.62 336.67,-515.62 333.46,-515.62 330.25,-512.42 330.25,-509.21 330.25,-509.21 330.25,-502.79 330.25,-502.79 330.25,-499.58 333.46,-496.38 336.67,-496.38 336.67,-496.38 377.83,-496.38 377.83,-496.38 381.04,-496.38 384.25,-499.58 384.25,-502.79 384.25,-502.79 384.25,-509.21 384.25,-509.21 384.25,-512.42 381.04,-515.62 377.83,-515.62"/>
<text text-anchor="start" x="338.5" y="-503.07" font-family="Helvetica,sans-Serif" font-size="9.00">consts.ts</text>
</a>
</g>
</g>
<!-- src/libs/reuse/elements/form&#45;controls/components/Select.tsx&#45;&gt;src/libs/reuse/elements/form&#45;controls/consts/consts.ts -->
<g id="edge5" class="edge">
<title>src/libs/reuse/elements/form&#45;controls/components/Select.tsx&#45;&gt;src/libs/reuse/elements/form&#45;controls/consts/consts.ts</title>
<path fill="none" stroke="#000000" stroke-width="2" stroke-opacity="0.200000" d="M252.37,-480.55C272.32,-485.44 299.73,-492.15 321.39,-497.46"/>
<polygon fill="#000000" fill-opacity="0.200000" stroke="#000000" stroke-width="2" stroke-opacity="0.200000" points="321.66,-500.18 327.98,-499.57 322.66,-496.1 321.66,-500.18"/>
</g>
<!-- src/libs/reuse/elements/form&#45;controls/interfaces/interfaces.ts -->
<g id="node16" class="node">
<title>src/libs/reuse/elements/form&#45;controls/interfaces/interfaces.ts</title>
<g id="a_node16"><a xlink:href="src/libs/reuse/elements/form-controls/interfaces/interfaces.ts" xlink:title="interfaces.ts">
<path fill="#ddfeff" stroke="black" d="M383.96,-389.62C383.96,-389.62 330.54,-389.62 330.54,-389.62 327.33,-389.62 324.12,-386.42 324.12,-383.21 324.12,-383.21 324.12,-376.79 324.12,-376.79 324.12,-373.58 327.33,-370.38 330.54,-370.38 330.54,-370.38 383.96,-370.38 383.96,-370.38 387.17,-370.38 390.38,-373.58 390.38,-376.79 390.38,-376.79 390.38,-383.21 390.38,-383.21 390.38,-386.42 387.17,-389.62 383.96,-389.62"/>
<text text-anchor="start" x="332.12" y="-377.07" font-family="Helvetica,sans-Serif" font-size="9.00">interfaces.ts</text>
</a>
</g>
</g>
<!-- src/libs/reuse/elements/form&#45;controls/components/Select.tsx&#45;&gt;src/libs/reuse/elements/form&#45;controls/interfaces/interfaces.ts -->
<g id="edge6" class="edge">
<title>src/libs/reuse/elements/form&#45;controls/components/Select.tsx&#45;&gt;src/libs/reuse/elements/form&#45;controls/interfaces/interfaces.ts</title>
<path fill="none" stroke="#000000" stroke-width="2" stroke-opacity="0.200000" d="M252.41,-472.35C262.32,-470.41 272.87,-466.54 280,-459 291.56,-446.77 278.28,-435.73 288,-422 296.44,-410.08 309.44,-400.87 321.84,-394.15"/>
<polygon fill="#000000" fill-opacity="0.200000" stroke="#000000" stroke-width="2" stroke-opacity="0.200000" points="323.44,-395.68 327.84,-391.1 321.54,-391.94 323.44,-395.68"/>
</g>
<!-- src/libs/reuse/elements/form&#45;controls/styles/elementStyles.ts -->
<g id="node17" class="node">
<title>src/libs/reuse/elements/form&#45;controls/styles/elementStyles.ts</title>
<g id="a_node17"><a xlink:href="src/libs/reuse/elements/form-controls/styles/elementStyles.ts" xlink:title="elementStyles.ts">
<path fill="#ddfeff" stroke="black" d="M392.96,-452.62C392.96,-452.62 321.54,-452.62 321.54,-452.62 318.33,-452.62 315.12,-449.42 315.12,-446.21 315.12,-446.21 315.12,-439.79 315.12,-439.79 315.12,-436.58 318.33,-433.38 321.54,-433.38 321.54,-433.38 392.96,-433.38 392.96,-433.38 396.17,-433.38 399.38,-436.58 399.38,-439.79 399.38,-439.79 399.38,-446.21 399.38,-446.21 399.38,-449.42 396.17,-452.62 392.96,-452.62"/>
<text text-anchor="start" x="323.12" y="-440.07" font-family="Helvetica,sans-Serif" font-size="9.00">elementStyles.ts</text>
</a>
</g>
</g>
<!-- src/libs/reuse/elements/form&#45;controls/components/Select.tsx&#45;&gt;src/libs/reuse/elements/form&#45;controls/styles/elementStyles.ts -->
<g id="edge7" class="edge">
<title>src/libs/reuse/elements/form&#45;controls/components/Select.tsx&#45;&gt;src/libs/reuse/elements/form&#45;controls/styles/elementStyles.ts</title>
<path fill="none" stroke="#000000" stroke-width="2" stroke-opacity="0.200000" d="M252.37,-467.65C267.97,-463.95 288.15,-459.16 306.56,-454.79"/>
<polygon fill="#000000" fill-opacity="0.200000" stroke="#000000" stroke-width="2" stroke-opacity="0.200000" points="307.52,-456.25 312.87,-452.82 306.55,-452.16 307.52,-456.25"/>
</g>
<!-- src/libs/reuse/elements/form&#45;controls/components/StyledCheckbox.tsx -->
<g id="node18" class="node">
<title>src/libs/reuse/elements/form&#45;controls/components/StyledCheckbox.tsx</title>
<g id="a_node18"><a xlink:href="src/libs/reuse/elements/form-controls/components/StyledCheckbox.tsx" xlink:title="StyledCheckbox.tsx">
<path fill="#bbfeff" stroke="black" d="M265.58,-452.62C265.58,-452.62 183.67,-452.62 183.67,-452.62 180.46,-452.62 177.25,-449.42 177.25,-446.21 177.25,-446.21 177.25,-439.79 177.25,-439.79 177.25,-436.58 180.46,-433.38 183.67,-433.38 183.67,-433.38 265.58,-433.38 265.58,-433.38 268.79,-433.38 272,-436.58 272,-439.79 272,-439.79 272,-446.21 272,-446.21 272,-449.42 268.79,-452.62 265.58,-452.62"/>
<text text-anchor="start" x="185.25" y="-440.07" font-family="Helvetica,sans-Serif" font-size="9.00">StyledCheckbox.tsx</text>
</a>
</g>
</g>
<!-- src/libs/reuse/elements/form&#45;controls/components/StyledCheckbox.tsx&#45;&gt;src/libs/reuse/elements/form&#45;controls/consts/consts.ts -->
<g id="edge9" class="edge">
<title>src/libs/reuse/elements/form&#45;controls/components/StyledCheckbox.tsx&#45;&gt;src/libs/reuse/elements/form&#45;controls/consts/consts.ts</title>
<path fill="none" stroke="#000000" stroke-width="2" stroke-opacity="0.200000" d="M272.47,-452.37C275.19,-453.97 277.74,-455.83 280,-458 288.41,-466.08 279.81,-474.69 288,-483 296.9,-492.03 309.45,-497.52 321.37,-500.85"/>
<polygon fill="#000000" fill-opacity="0.200000" stroke="#000000" stroke-width="2" stroke-opacity="0.200000" points="321.55,-503.54 327.88,-502.91 322.54,-499.46 321.55,-503.54"/>
</g>
<!-- src/libs/reuse/elements/form&#45;controls/components/StyledCheckbox.tsx&#45;&gt;src/libs/reuse/elements/form&#45;controls/styles/elementStyles.ts -->
<g id="edge10" class="edge">
<title>src/libs/reuse/elements/form&#45;controls/components/StyledCheckbox.tsx&#45;&gt;src/libs/reuse/elements/form&#45;controls/styles/elementStyles.ts</title>
<path fill="none" stroke="#000000" stroke-width="2" stroke-opacity="0.200000" d="M272.41,-443C283.39,-443 295.13,-443 306.24,-443"/>
<polygon fill="#000000" fill-opacity="0.200000" stroke="#000000" stroke-width="2" stroke-opacity="0.200000" points="305.99,-445.1 311.99,-443 305.99,-440.9 305.99,-445.1"/>
</g>
<!-- src/libs/utils/utils.ts -->
<g id="node19" class="node">
<title>src/libs/utils/utils.ts</title>
<g id="a_node19"><a xlink:href="src/libs/utils/utils.ts" xlink:title="utils.ts">
<path fill="#ddfeff" stroke="black" d="M245.21,-51.62C245.21,-51.62 204.04,-51.62 204.04,-51.62 200.83,-51.62 197.62,-48.42 197.62,-45.21 197.62,-45.21 197.62,-38.79 197.62,-38.79 197.62,-35.58 200.83,-32.38 204.04,-32.38 204.04,-32.38 245.21,-32.38 245.21,-32.38 248.42,-32.38 251.62,-35.58 251.62,-38.79 251.62,-38.79 251.62,-45.21 251.62,-45.21 251.62,-48.42 248.42,-51.62 245.21,-51.62"/>
<text text-anchor="start" x="211.12" y="-39.08" font-family="Helvetica,sans-Serif" font-size="9.00">utils.ts</text>
</a>
</g>
</g>
<!-- src/libs/utils/utils.ts&#45;&gt;src/libs/reuse/elements/form&#45;controls/interfaces/interfaces.ts -->
<g id="edge11" class="edge">
<title>src/libs/utils/utils.ts&#45;&gt;src/libs/reuse/elements/form&#45;controls/interfaces/interfaces.ts</title>
<path fill="none" stroke="#000000" stroke-width="2" stroke-opacity="0.200000" d="M237.82,-51.82C250.22,-62.44 269.09,-80.48 280,-100 330.13,-189.72 348.78,-314.24 354.29,-361.13"/>
<polygon fill="#000000" fill-opacity="0.200000" stroke="#000000" stroke-width="2" stroke-opacity="0.200000" points="352.52,-361.19 355.28,-366.92 356.7,-360.73 352.52,-361.19"/>
</g>
</g>
</svg>
